<svg xmlns="http://www.w3.org/2000/svg" viewBox="0 -161 800 161">
  <path d="M 0 0 L 0 -72 L 12 -106 L 29 -150 C 34 -141.6667 39 -133.3333 44 -125 L 64 -111 L 78 -98 L 88 -113 L 107 -86 L 133 -75 L 152 -87 L 166 -110 L 186 -126 L 194 -103 L 213 -89 L 230 -77 L 253 -79 L 275 -76 L 275 -76 L 308 -76 L 335 -92 L 365 -126 L 366 -126 L 377 -144 L 391 -124 L 406 -105 L 424 -116 L 425 -115 L 449 -94 L 482 -85 L 506 -109 L 507 -109 L 548 -89 L 582 -126 L 591 -144 L 613 -115 L 630 -106 L 647 -117 L 663 -146 L 669 -139 L 681 -122 L 694 -98 L 716 -85 L 739 -108 L 740 -108 L 762 -132 L 780 -161 L 800 -142 L 800 0 L 0 0" fill="#081119"/>
</svg>